<svg width="309" height="342" viewBox="0 0 309 342" fill="none" xmlns="http://www.w3.org/2000/svg">
<rect x="62" width="186" height="43" fill="#D9D9D9"/>
<rect x="31" y="42.7144" width="31" height="42.7143" fill="#D9D9D9"/>
<path d="M248 42.7141H279V85.4284H248V42.7141Z" fill="#D9D9D9"/>
<rect y="85.4285" width="31" height="85.4286" fill="#D9D9D9"/>
<rect x="278" y="85.4287" width="31" height="85.4286" fill="#D9D9D9"/>
<rect width="31" height="42.7143" transform="matrix(1 0 0 -1 31 213.572)" fill="#D9D9D9"/>
<rect width="31" height="42.7143" transform="matrix(1 0 0 -1 62 256.286)" fill="#D9D9D9"/>
<rect width="31" height="42.7143" transform="matrix(1 0 0 -1 247 213.714)" fill="#D9D9D9"/>
<rect width="31" height="42.7143" transform="matrix(1 0 0 -1 216 256.429)" fill="#D9D9D9"/>
<rect width="31" height="42.7143" transform="matrix(1 0 0 -1 185 299.286)" fill="#D9D9D9"/>
<rect width="31" height="42.7143" transform="matrix(1 0 0 -1 93 299)" fill="#D9D9D9"/>
<rect width="31" height="42.7143" transform="matrix(1 0 0 -1 124 342)" fill="#D9D9D9"/>
<rect width="31" height="42.7143" transform="matrix(1 0 0 -1 155 341.714)" fill="#D9D9D9"/>
<rect width="24" height="24" transform="translate(154 114)" fill="white"/>
<rect width="24" height="24" transform="translate(154 114)" fill="white"/>
<rect width="24" height="24" transform="translate(154 90)" fill="white"/>
<rect width="24" height="24" transform="translate(154 90)" fill="white"/>
<rect width="24" height="24" transform="translate(154 138)" fill="white"/>
<rect width="24" height="24" transform="translate(154 138)" fill="white"/>
<rect width="24" height="24" transform="translate(154 162)" fill="white"/>
<rect width="24" height="24" transform="translate(154 162)" fill="white"/>
<rect width="24" height="24" transform="translate(154 186)" fill="white"/>
<rect width="24" height="24" transform="translate(154 186)" fill="white"/>
<rect width="24" height="24" transform="translate(178 114)" fill="white"/>
<rect width="24" height="24" transform="translate(178 114)" fill="white"/>
<rect width="24" height="24" transform="translate(178 162)" fill="white"/>
<rect width="24" height="24" transform="translate(178 162)" fill="white"/>
<rect width="24" height="24" transform="translate(202 138)" fill="white"/>
<rect width="24" height="24" transform="translate(202 138)" fill="white"/>
<rect width="14" height="14" transform="translate(226 143)" fill="white"/>
<rect width="14" height="14" transform="translate(226 143)" fill="white"/>
<rect width="14" height="14" transform="translate(147 210)" fill="white"/>
<rect width="14" height="14" transform="translate(147 210)" fill="white"/>
<rect width="14" height="14" transform="translate(147 76)" fill="white"/>
<rect width="14" height="14" transform="translate(147 76)" fill="white"/>
<rect width="14" height="14" transform="translate(69 143)" fill="white"/>
<rect width="14" height="14" transform="translate(69 143)" fill="white"/>
<rect width="24" height="24" transform="matrix(-1 0 0 1 155 114)" fill="white"/>
<rect width="24" height="24" transform="matrix(-1 0 0 1 155 114)" fill="white"/>
<rect width="24" height="24" transform="matrix(-1 0 0 1 155 90)" fill="white"/>
<rect width="24" height="24" transform="matrix(-1 0 0 1 155 90)" fill="white"/>
<rect width="24" height="24" transform="matrix(-1 0 0 1 155 138)" fill="white"/>
<rect width="24" height="24" transform="matrix(-1 0 0 1 155 138)" fill="white"/>
<rect width="24" height="24" transform="matrix(-1 0 0 1 155 162)" fill="white"/>
<rect width="24" height="24" transform="matrix(-1 0 0 1 155 162)" fill="white"/>
<rect width="24" height="24" transform="matrix(-1 0 0 1 155 186)" fill="white"/>
<rect width="24" height="24" transform="matrix(-1 0 0 1 155 186)" fill="white"/>
<rect width="24" height="24" transform="matrix(-1 0 0 1 131 114)" fill="white"/>
<rect width="24" height="24" transform="matrix(-1 0 0 1 131 114)" fill="white"/>
<rect width="24" height="24" transform="matrix(-1 0 0 1 131 162)" fill="white"/>
<rect width="24" height="24" transform="matrix(-1 0 0 1 131 162)" fill="white"/>
<rect width="24" height="24" transform="matrix(-1 0 0 1 107 138)" fill="white"/>
<rect width="24" height="24" transform="matrix(-1 0 0 1 107 138)" fill="white"/>
</svg>
